<?xml version="1.0" encoding="UTF-8"?>
<svg width="18px" height="18px" viewBox="0 0 18 18" version="1.1" xmlns="http://www.w3.org/2000/svg" xmlns:xlink="http://www.w3.org/1999/xlink">
    <title>形状</title>
    <g id="我的" stroke="none" stroke-width="1" fill="none" fill-rule="evenodd">
        <g id="00-邀请好友-用户进入" transform="translate(-16.000000, -95.000000)" fill="#FFFFFF" fill-rule="nonzero">
            <g id="编组-12" transform="translate(0.000000, 88.000000)">
                <g id="编组-11" transform="translate(16.000000, 7.000000)">
                    <path d="M4.88690163,6.4704909 L7.84008417,3.5808053 C8.24513414,3.18643133 8.60599684,3 8.959495,3 C9.3350868,3 9.76959495,3.24379482 9.76959495,3.93932708 L9.76959495,15.0391616 C9.76959495,15.7490347 9.32772225,16 8.959495,16 C8.62072593,16 8.24513414,15.7992278 7.84008417,15.4191947 L4.88690163,12.5295091 L2.7364545,12.5295091 C2.33140452,12.5295091 2,12.2068395 2,11.8124655 L2,7.18753447 C2,6.79316051 2.33140452,6.4704909 2.7364545,6.4704909 L4.88690163,6.4704909 Z M3.0310363,7.76833977 L3.0310363,11.2244898 C3.0310363,11.3822394 3.16359811,11.5113072 3.3256181,11.5113072 L5.11520252,11.5113072 C5.25512888,11.5113072 5.38769069,11.5615003 5.47606523,11.6618864 L8.58390321,14.6878103 C8.63545502,14.7380033 8.68700684,14.7881964 8.73855865,14.8240485 L8.73855865,4.16161059 C8.70173593,4.19746277 8.65018411,4.24048538 8.58390321,4.29784887 L5.46133614,7.33094319 C5.3729616,7.41698842 5.2256707,7.48152234 5.10047344,7.48152234 L3.3256181,7.48152234 C3.16359811,7.48152234 3.0310363,7.61059018 3.0310363,7.76833977 Z M11.581273,12.9453944 C11.3824303,12.9453944 11.2056812,12.8450083 11.1246712,12.6657474 C11.0362967,12.5008274 11.0436612,12.3000552 11.161494,12.149476 L11.3677012,11.869829 C11.8979484,11.1599559 12.3692793,10.5504688 12.3692793,9.49641478 C12.3692793,8.40650855 11.9495003,7.8758963 11.4339821,7.21621622 C11.3456076,7.10148924 11.2498685,6.9724214 11.161494,6.86486486 C10.9921094,6.63541092 11.0436612,6.31991175 11.2793267,6.15499173 C11.3971594,6.07611693 11.5297212,6.04026475 11.6696476,6.0689465 C11.8022094,6.09762824 11.9274066,6.1693326 12.0084166,6.2697187 C12.0967912,6.38444567 12.1778012,6.49917264 12.2661757,6.61389961 C12.8258811,7.33811362 13.4150447,8.08383894 13.4150447,9.50358522 C13.4150447,10.8874793 12.7743293,11.7335907 12.2146239,12.4721456 L11.9936875,12.7374517 C11.8905839,12.8593491 11.7359285,12.9453944 11.581273,12.9453944 L11.581273,12.9453944 Z M13.3413993,14.6519581 C13.135192,14.6519581 12.9510784,14.5372311 12.8700684,14.3579702 C12.7890584,14.1787093 12.8185166,13.9635962 12.9510784,13.8130171 C13.9894792,12.6585769 14.9542346,11.3320463 14.9542346,9.48924435 C14.9542346,7.64644236 13.9894792,6.31991175 12.9510784,5.16547159 C12.7669648,4.95035852 12.7816938,4.63485935 13.0026302,4.45559846 C13.2088375,4.26199669 13.5476065,4.29067843 13.7317201,4.50579151 C14.851131,5.74627689 16,7.30943188 16,9.49641478 C16,11.6762272 14.851131,13.2465527 13.7317201,14.4798676 C13.621252,14.5945946 13.4960547,14.6519581 13.3413993,14.6519581 Z" id="形状"></path>
                </g>
            </g>
        </g>
    </g>
</svg>