<?xml version="1.0" encoding="UTF-8"?>
<svg width="24px" height="24px" viewBox="0 0 24 24" version="1.1" xmlns="http://www.w3.org/2000/svg" xmlns:xlink="http://www.w3.org/1999/xlink">
    <title>方向=左</title>
    <g id="充值" stroke="none" stroke-width="1" fill="none" fill-rule="evenodd">
        <g id="iPhone-13-mini备份" transform="translate(-16.000000, -54.000000)">
            <g id="🐱Bar/导航栏/💎+💎" transform="translate(0.000000, 44.000000)">
                <g id="方向=左" transform="translate(16.000000, 10.000000)">
                    <path d="M1.43098987e-07,1.43098561e-07 L24.0000001,1.43098561e-07 L24.0000001,24.0000001 L1.43098987e-07,24.0000001 L1.43098987e-07,1.43098561e-07 Z" id="Rectangle-6" transform="translate(12.000000, 12.000000) scale(-1, -1) rotate(-89.999999) translate(-12.000000, -12.000000) "></path>
                    <path d="M18.2040586,6 L18.2040586,18 C18.2040586,18.4142141 17.8682728,18.75 17.4540586,18.75 L5.45405862,18.75 C5.03984505,18.75 4.70405862,18.4142141 4.70405862,18 C4.70405862,17.5857868 5.03984505,17.25 5.45405862,17.25 L16.7040586,17.25 L16.7040586,6 C16.7040586,5.58578643 17.0398454,5.25 17.4540586,5.25 C17.8682728,5.25 18.2040586,5.58578643 18.2040586,6 Z" id="Rectangle-7-(Stroke)" fill="#FFFFFF" transform="translate(11.454059, 12.000000) scale(1, -1) rotate(-224.999999) translate(-11.454059, -12.000000) "></path>
                </g>
            </g>
        </g>
    </g>
</svg>