<?xml version="1.0" encoding="UTF-8"?>
<svg width="13px" height="14px" viewBox="0 0 13 14" version="1.1" xmlns="http://www.w3.org/2000/svg" xmlns:xlink="http://www.w3.org/1999/xlink">
    <title>Rectangle 21</title>
    <g id="ä¸€çº§ç•Œé¢" stroke="none" stroke-width="1" fill="none" fill-rule="evenodd">
        <g id="01-æˆ‘çš„-å¥³-å·²çœŸäººè®¤è¯" transform="translate(-184.000000, -128.000000)">
            <g id="ç¼–ç»„-4" transform="translate(16.000000, 92.000000)">
                <g id="ç¼–ç»„" transform="translate(90.000000, 33.000000)">
                    <g id="ðŸ¶Icon/æ ‡ç­¾/æ€§åˆ«/å¥³" transform="translate(73.000000, 1.000000)">
                        <g id="Group-10" transform="translate(5.000000, 2.500000)">
                            <path d="M0,0 L13,0 L13,13 L0,13 L0,0 Z" id="Rectangle-21"></path>
                            <path d="M3.97268498,5.70908859 C3.97268523,7.54174698 5.45832963,9.02741008 7.29096413,9.02741008 C9.12359935,9.02740959 10.6092433,7.54174649 10.6092433,5.70908786 C10.6092433,3.87642971 9.12359838,2.39076624 7.29096364,2.39076643 C5.45832915,2.39076655 3.97268498,3.87643019 3.97268498,5.70908859 Z M3.20692838,5.70908859 C3.20692838,6.69897595 3.55909386,7.60660956 4.14497032,8.31353363 L3.28414444,9.17436526 L2.27861417,8.16882239 C2.12909087,8.01929706 1.88666569,8.01929706 1.73714245,8.16882239 C1.58761917,8.31834723 1.58761918,8.56077592 1.73714249,8.71030076 L2.74267123,9.71584218 L1.87218567,10.5863336 C1.72266182,10.7358585 1.7226611,10.9782862 1.87218402,11.127812 C2.02170668,11.2773378 2.264132,11.2773388 2.41365564,11.1278139 L3.28414286,10.2573205 L4.28966484,11.2628556 C4.43918824,11.4123815 4.68161331,11.4123815 4.83113671,11.2628556 C4.98066011,11.1133308 4.98066011,10.8709021 4.83113671,10.7213773 L3.82561606,9.71584412 L4.68643172,8.85502271 C5.39336419,9.44096662 6.30103306,9.79317669 7.29096413,9.79317669 C9.54651473,9.7931762 11.375,7.96466732 11.375,5.70908786 C11.375,3.45350814 9.54651424,1.625 7.29096364,1.625 C5.03541329,1.625 3.20692826,3.45350887 3.20692838,5.70908859 Z" id="Union" fill="#FFFFFF"></path>
                        </g>
                    </g>
                </g>
            </g>
        </g>
    </g>
</svg>