<?xml version="1.0" encoding="UTF-8"?>
<svg width="20px" height="20px" viewBox="0 0 20 20" version="1.1" xmlns="http://www.w3.org/2000/svg" xmlns:xlink="http://www.w3.org/1999/xlink">
    <title>形状结合</title>
    <g id="一级界面" stroke="none" stroke-width="1" fill="none" fill-rule="evenodd">
        <g id="01-我的-女-已真人认证" transform="translate(-339.000000, -116.000000)" fill="#999999">
            <g id="编组-4" transform="translate(16.000000, 92.000000)">
                <g id="编组" transform="translate(323.000000, 24.000000)">
                    <path d="M9.23423585,2.50355228 C9.68318491,2.50355228 9.98248427,2.80348123 9.98248429,3.25337467 C9.9824843,3.70326812 9.68318492,4.00319705 9.23423585,4.00319705 L4.74474528,4.00319705 C4.29579622,4.00319705 3.99649686,4.303126 3.99649686,4.75301945 L3.99649686,15.2505328 C3.99649686,15.7004263 4.29579622,16.0003552 4.74474528,16.0003552 L15.2202233,16.0003552 C15.6691723,16.0003552 15.9684717,15.7004263 15.9684717,15.2505328 L15.9684717,10.0017761 C15.9684717,9.55188271 16.2677711,9.25195376 16.7167201,9.25195376 C17.1656692,9.25195376 17.4649686,9.55188271 17.4649686,10.0017761 L17.4649686,16.0003552 C17.4649686,16.8251598 16.791545,17.5 15.9684717,17.5 L3.99649686,17.5 C3.17342359,17.5 2.5,16.8251598 2.5,16.0003552 L2.5,4.00319705 C2.5,3.17839243 3.17342359,2.50355228 3.99649686,2.50355228 L9.23423585,2.50355228 Z M17.3153189,2.65351676 C17.6146182,3.02842795 17.5397934,3.55330362 17.1656692,3.85323259 L8.93493648,12.1012788 C8.71046195,12.47619 8.26151289,12.6261545 7.88738868,12.4012078 C7.51326447,12.176261 7.36361478,11.7263676 7.58808932,11.3514564 C7.66291416,11.2764742 7.73773901,11.1265097 7.88738868,11.0515275 L16.0432965,2.80348124 C16.3425959,2.42857005 16.9411947,2.42857005 17.3153189,2.65351676 Z" id="形状结合"></path>
                </g>
            </g>
        </g>
    </g>
</svg>