<?xml version="1.0" encoding="UTF-8"?>
<svg width="13px" height="14px" viewBox="0 0 13 14" version="1.1" xmlns="http://www.w3.org/2000/svg" xmlns:xlink="http://www.w3.org/1999/xlink">
    <title>方向=右</title>
    <g id="一级界面" stroke="none" stroke-width="1" fill="none" fill-rule="evenodd">
        <g id="01-我的-女-已真人认证" transform="translate(-323.000000, -219.000000)">
            <g id="编组-13" transform="translate(36.000000, 196.000000)">
                <g id="方向=右" transform="translate(287.000000, 23.500000)">
                    <path d="M2.08685321e-07,7.7511686e-08 L13.0000002,7.7511686e-08 L13.0000002,13.0000001 L2.08685321e-07,13.0000001 L2.08685321e-07,7.7511686e-08 Z" id="Rectangle-6" transform="translate(6.500000, 6.500000) scale(-1, -1) rotate(-89.999999) translate(-6.500000, -6.500000) "></path>
                    <path d="M9.86051215,3.25 L9.86051215,9.75 C9.86051215,9.97436599 9.67862814,10.15625 9.45426215,10.15625 L2.95426215,10.15625 C2.72989647,10.15625 2.54801215,9.97436599 2.54801215,9.75 C2.54801215,9.52563453 2.72989647,9.34375 2.95426215,9.34375 L9.04801215,9.34375 L9.04801215,3.25 C9.04801215,3.02563432 9.22989668,2.84375 9.45426215,2.84375 C9.67862814,2.84375 9.86051215,3.02563432 9.86051215,3.25 Z" id="Rectangle-7-(Stroke)" fill="#E7C26A" transform="translate(6.204262, 6.500000) scale(1, -1) rotate(-44.999999) translate(-6.204262, -6.500000) "></path>
                </g>
            </g>
        </g>
    </g>
</svg>